<svg width="33" height="26" viewBox="0 0 33 26" fill="none" xmlns="http://www.w3.org/2000/svg">
<g clip-path="url(#clip0_1_483)">
<path d="M19.5698 0C18.4033 0 17.4593 0.929922 17.4593 2.07909V14.1756C17.4593 14.6973 17.0295 15.1207 16.5 15.1207C15.9705 15.1207 15.5407 14.6973 15.5407 14.1756V2.07909C15.5407 0.929922 14.5968 0 13.4302 0H4.02908V20.0349H12.4095C13.9137 20.0349 15.3412 20.5263 16.5 21.4184C17.6512 20.5188 19.0863 20.0349 20.5905 20.0349H28.9709V0H19.5698ZM9.97676 13.2306H6.90699C6.37746 13.2306 5.94769 12.8072 5.94769 12.2855C5.94769 11.7639 6.37746 11.3405 6.90699 11.3405H9.97676C10.5063 11.3405 10.9361 11.7639 10.9361 12.2855C10.9361 12.8072 10.5063 13.2306 9.97676 13.2306ZM12.2791 9.45042H6.90699C6.37746 9.45042 5.94769 9.02704 5.94769 8.50538C5.94769 7.98372 6.37746 7.56034 6.90699 7.56034H12.2791C12.8086 7.56034 13.2384 7.98372 13.2384 8.50538C13.2384 9.02704 12.8086 9.45042 12.2791 9.45042ZM12.2791 5.67025H6.90699C6.37746 5.67025 5.94769 5.24687 5.94769 4.72521C5.94769 4.20355 6.37746 3.78017 6.90699 3.78017H12.2791C12.8086 3.78017 13.2384 4.20355 13.2384 4.72521C13.2384 5.24687 12.8086 5.67025 12.2791 5.67025Z" fill="#864BD8"/>
<path d="M31.8488 2.0791C31.2119 2.0791 30.6977 2.58564 30.6977 3.21315V21.736H21.1737C19.4547 21.736 17.8277 22.2954 16.5 23.3388C15.1723 22.303 13.5453 21.736 11.8263 21.736H2.30233V3.21315C2.30233 2.58564 1.78814 2.0791 1.15116 2.0791C0.514186 2.0791 0 2.58564 0 3.21315V21.8721C0 23.0515 0.974651 24.0041 2.16419 24.0041H11.8263C13.2153 24.0041 14.5277 24.5333 15.51 25.4935L15.6865 25.6674C15.9091 25.8866 16.2007 26 16.5 26C16.7993 26 17.0833 25.8866 17.3135 25.6674L17.49 25.4935C18.4723 24.5333 19.7847 23.9965 21.1737 23.9965H30.8358C32.033 23.9965 33 23.0364 33 21.8645V3.21315C33 2.58564 32.4858 2.0791 31.8488 2.0791Z" fill="#864BD8"/>
</g>
<defs>
<clipPath id="clip0_1_483">
<rect width="33" height="26" fill="white"/>
</clipPath>
</defs>
</svg>
