<svg width="32" height="29" viewBox="0 0 32 29" fill="none" xmlns="http://www.w3.org/2000/svg">
<g clip-path="url(#clip0_1_479)">
<path d="M26.3979 0H22.9917C22.055 0 21.2886 0.76639 21.2886 1.70309C21.2886 2.63979 20.5222 3.40618 19.5855 3.40618C18.6488 3.40618 17.8824 2.63979 17.8824 1.70309C17.8824 0.76639 17.116 0 16.1793 0H11.9216C10.9849 0 10.2185 0.76639 10.2185 1.70309C10.2185 2.63979 9.45214 3.40618 8.51544 3.40618C7.57874 3.40618 6.81235 2.63979 6.81235 1.70309C6.81235 0.76639 6.04596 0 5.10926 0H1.70309C0.76639 0 0 0.76639 0 1.70309V22.9917C0 23.9284 0.76639 24.6948 1.70309 24.6948H14.6125C14.1612 23.5537 13.8972 22.319 13.8972 21.0161C13.8972 15.5236 18.3508 11.0701 23.8432 11.0701C25.3675 11.0701 26.8066 11.4277 28.101 12.0408V1.70309C28.101 0.76639 27.3346 0 26.3979 0ZM5.10926 20.5903C4.17257 20.5903 3.40618 19.8239 3.40618 18.8872C3.40618 17.9505 4.17257 17.1842 5.10926 17.1842C6.04596 17.1842 6.81235 17.9505 6.81235 18.8872C6.81235 19.8239 6.04596 20.5903 5.10926 20.5903ZM5.10926 15.4811C4.17257 15.4811 3.40618 14.7147 3.40618 13.778C3.40618 12.8413 4.17257 12.0749 5.10926 12.0749C6.04596 12.0749 6.81235 12.8413 6.81235 13.778C6.81235 14.7147 6.04596 15.4811 5.10926 15.4811ZM10.2185 20.5903C9.28183 20.5903 8.51544 19.8239 8.51544 18.8872C8.51544 17.9505 9.28183 17.1842 10.2185 17.1842C11.1552 17.1842 11.9216 17.9505 11.9216 18.8872C11.9216 19.8239 11.1552 20.5903 10.2185 20.5903ZM10.2185 15.4811C9.28183 15.4811 8.51544 14.7147 8.51544 13.778C8.51544 12.8413 9.28183 12.0749 10.2185 12.0749C11.1552 12.0749 11.9216 12.8413 11.9216 13.778C11.9216 14.7147 11.1552 15.4811 10.2185 15.4811ZM10.2185 10.3718C9.28183 10.3718 8.51544 9.60542 8.51544 8.66872C8.51544 7.73202 9.28183 6.96563 10.2185 6.96563C11.1552 6.96563 11.9216 7.73202 11.9216 8.66872C11.9216 9.60542 11.1552 10.3718 10.2185 10.3718ZM15.3278 10.3718C14.3911 10.3718 13.6247 9.60542 13.6247 8.66872C13.6247 7.73202 14.3911 6.96563 15.3278 6.96563C16.2645 6.96563 17.0309 7.73202 17.0309 8.66872C17.0309 9.60542 16.2645 10.3718 15.3278 10.3718Z" fill="#C69FB6"/>
<path d="M23.8432 13.3523C19.611 13.3523 16.1793 16.784 16.1793 21.0162C16.1793 25.2484 19.611 28.6801 23.8432 28.6801C28.0754 28.6801 31.5071 25.2484 31.5071 21.0162C31.5071 16.784 28.0754 13.3523 23.8432 13.3523ZM24.9076 21.442C24.9076 22.0295 24.4308 22.5064 23.8432 22.5064H19.5855C18.9979 22.5064 18.5211 22.0295 18.5211 21.442C18.5211 20.8544 18.9979 20.3775 19.5855 20.3775H22.7788V16.3327C22.7788 15.7451 23.2557 15.2683 23.8432 15.2683C24.4308 15.2683 24.9076 15.7451 24.9076 16.3327V21.442Z" fill="#C69FB6"/>
</g>
<defs>
<clipPath id="clip0_1_479">
<rect width="31.5071" height="28.68" fill="white"/>
</clipPath>
</defs>
</svg>
