<svg width="14" height="20" viewBox="0 0 14 20" fill="none" xmlns="http://www.w3.org/2000/svg">
<path fill-rule="evenodd" clip-rule="evenodd" d="M1.81828 0.666748C1.78423 0.666748 1.75028 0.667173 1.71644 0.668019H12.3511C12.3172 0.667173 12.2833 0.666748 12.2492 0.666748H1.81828ZM12.2788 19.3333H1.78874C1.79858 19.3334 1.80843 19.3334 1.81828 19.3334H12.2492C12.2591 19.3334 12.2689 19.3334 12.2788 19.3333ZM10.7914 16.572H13.5223L13.5235 11.6856C13.5235 9.28671 13.0131 7.44277 10.2453 7.44277C9.72593 7.42325 9.2111 7.54675 8.75559 7.80013C8.30009 8.05351 7.92096 8.42728 7.6586 8.88162H7.6219V7.66433H5.00024V16.5717H7.73114V12.1653C7.73114 11.0033 7.94875 9.87792 9.37109 9.87792C10.7732 9.87792 10.7914 11.2076 10.7914 12.2405V16.572ZM1.03839 6.17641C1.29903 6.35273 1.60545 6.44681 1.91889 6.44676C2.127 6.44672 2.33307 6.40516 2.52533 6.32447C2.71759 6.24377 2.89227 6.1255 3.03941 5.97643C3.18654 5.82736 3.30324 5.65039 3.38285 5.45564C3.46246 5.26089 3.50341 5.05216 3.50337 4.84137C3.50332 4.52392 3.41032 4.21361 3.23613 3.94968C3.06195 3.68576 2.81441 3.48007 2.52481 3.35864C2.23521 3.23721 1.91656 3.20548 1.60915 3.26747C1.30175 3.32946 1.01939 3.48238 0.7978 3.70689C0.576206 3.93141 0.425321 4.21744 0.364228 4.52881C0.303134 4.84018 0.334576 5.1629 0.454575 5.45617C0.574575 5.74944 0.777743 6.00009 1.03839 6.17641ZM0.550597 16.572H3.28433V7.66433H0.550597V16.572Z" fill="#292929"/>
</svg>
