<svg width="24" height="25" viewBox="0 0 24 25" fill="none" xmlns="http://www.w3.org/2000/svg">
<g clip-path="url(#clip0_1_493)">
<path d="M12 13.1519C15.6607 13.1519 18.632 10.2021 18.632 6.58409C18.632 2.9661 15.6607 0 12 0C8.33926 0 5.36799 2.9498 5.36799 6.5678C5.36799 10.1858 8.33926 13.1356 11.9836 13.1356L12 13.1519ZM18.5992 16.4602H5.40082C2.41313 16.4602 0 18.8559 0 21.822V23.3703C0 24.2666 0.738714 25 1.64159 25H22.3584C23.2613 25 24 24.2666 24 23.3703V21.822C24 18.8559 21.5869 16.4602 18.5992 16.4602Z" fill="#F57343"/>
</g>
<defs>
<clipPath id="clip0_1_493">
<rect width="24" height="25" fill="white"/>
</clipPath>
</defs>
</svg>
