<svg width="31" height="30" viewBox="0 0 31 30" fill="none" xmlns="http://www.w3.org/2000/svg">
<g clip-path="url(#clip0_1_486)">
<path d="M29.727 14.5217V17.1211H23.5015C22.1614 17.1211 21.0756 18.2223 21.0756 19.5801C21.0756 20.9378 22.1614 22.0419 23.5015 22.0419H29.3986C30.2817 22.0419 30.9986 21.3163 30.9986 20.4205V15.399C30.9986 14.9143 30.6115 14.5217 30.1336 14.5217H29.7256H29.727Z" fill="#F8C546"/>
<path d="M24.9073 18.7352C24.6362 18.3157 24.1681 18.0393 23.6371 18.0393C22.7986 18.0393 22.1181 18.7295 22.1181 19.5799C22.1181 20.127 22.4004 20.6075 22.8238 20.881C23.0586 21.0326 23.338 21.1205 23.6371 21.1205C24.4755 21.1205 25.1561 20.4303 25.1561 19.5799C25.1561 19.2681 25.0638 18.9776 24.9073 18.7352Z" fill="white"/>
<path d="M16.6626 6.38352L11.5481 0L3.79955 6.38636L16.6626 6.38352Z" fill="#F8C546"/>
<path d="M20.6858 6.41762L16.766 1.52368L15.064 2.92539L17.8616 6.41762H20.6858Z" fill="#F8C546"/>
<path d="M24.7788 6.38205L21.4571 2.10889L19.5986 3.59564L21.8316 6.38205H24.7788Z" fill="#F8C546"/>
<path d="M23.3464 23.024C21.4711 23.024 19.9521 21.482 19.9521 19.58C19.9521 17.678 21.4725 16.1359 23.3464 16.1359H28.6733V9.194C28.6733 8.18346 27.8642 7.36284 26.8665 7.36426L3.40128 7.36851H1.80405C0.807699 7.36993 0 8.18913 0 9.19966L0.00279481 28.1702C0.00279481 29.1808 0.811891 30.0014 1.80824 30H3.40547L26.8707 29.9957C27.867 29.9957 28.6761 29.1751 28.6747 28.1646V23.0226H23.3464V23.024Z" fill="#F8C546"/>
</g>
<defs>
<clipPath id="clip0_1_486">
<rect width="31" height="30" fill="white"/>
</clipPath>
</defs>
</svg>
